<svg width="970" height="140" viewBox="0 0 970 140" fill="none" xmlns="http://www.w3.org/2000/svg">
<path d="M0 33.25C0 14.8865 14.8865 0 33.25 0V0C51.6135 0 66.5 14.8865 66.5 33.25V66.5H33.25C14.8865 66.5 0 51.6135 0 33.25V33.25Z" fill="#52D1B4"/>
<path d="M33.2499 126.35C18.5592 126.35 6.64993 114.441 6.64993 99.75V99.75C6.64993 85.0592 18.5591 73.15 33.2499 73.15L59.8499 73.15L59.8499 99.75C59.8499 114.441 47.9407 126.35 33.2499 126.35V126.35Z" fill="#60D884"/>
<path d="M66.5 66.5H99.75C118.113 66.5 133 81.3865 133 99.75V99.75C133 118.113 118.113 133 99.75 133V133C81.3865 133 66.5 118.113 66.5 99.75V66.5Z" fill="#52D1B4"/>
<path d="M73.1499 59.85L73.1499 33.25C73.1499 18.5592 85.0592 6.64998 99.7499 6.64998V6.64998C114.441 6.64998 126.35 18.5592 126.35 33.25V33.25C126.35 47.9407 114.441 59.85 99.7499 59.85L73.1499 59.85Z" fill="#59C7D5"/>
<path d="M59.8501 59.85L33.2501 59.85C18.5593 59.85 6.65007 47.9408 6.65007 33.25V33.25C6.65007 18.5592 18.5593 6.64998 33.2501 6.64998V6.64998C47.9408 6.64998 59.8501 18.5592 59.8501 33.25L59.8501 59.85Z" fill="white"/>
<path d="M73.1499 73.15L99.7499 73.15C114.441 73.15 126.35 85.0593 126.35 99.75V99.75C126.35 114.441 114.441 126.35 99.7499 126.35V126.35C85.0592 126.35 73.1499 114.441 73.1499 99.75L73.1499 73.15Z" fill="white"/>
<path d="M226.403 46.6818C226.04 43.0151 224.479 40.1667 221.722 38.1364C218.964 36.1061 215.222 35.0909 210.494 35.0909C207.282 35.0909 204.57 35.5455 202.358 36.4545C200.146 37.3333 198.449 38.5606 197.267 40.1364C196.116 41.7121 195.54 43.5 195.54 45.5C195.479 47.1667 195.828 48.6212 196.585 49.8636C197.373 51.1061 198.449 52.1818 199.812 53.0909C201.176 53.9697 202.752 54.7424 204.54 55.4091C206.328 56.0455 208.237 56.5909 210.267 57.0455L218.631 59.0455C222.691 59.9545 226.419 61.1667 229.812 62.6818C233.206 64.197 236.146 66.0606 238.631 68.2727C241.116 70.4848 243.04 73.0909 244.403 76.0909C245.797 79.0909 246.509 82.5303 246.54 86.4091C246.509 92.1061 245.055 97.0455 242.176 101.227C239.328 105.379 235.206 108.606 229.812 110.909C224.449 113.182 217.979 114.318 210.403 114.318C202.888 114.318 196.343 113.167 190.767 110.864C185.222 108.561 180.888 105.152 177.767 100.636C174.676 96.0909 173.055 90.4697 172.903 83.7727H191.949C192.161 86.8939 193.055 89.5 194.631 91.5909C196.237 93.6515 198.373 95.2121 201.04 96.2727C203.737 97.303 206.782 97.8182 210.176 97.8182C213.509 97.8182 216.403 97.3333 218.858 96.3636C221.343 95.3939 223.267 94.0455 224.631 92.3182C225.994 90.5909 226.676 88.6061 226.676 86.3636C226.676 84.2727 226.055 82.5152 224.812 81.0909C223.6 79.6667 221.813 78.4545 219.449 77.4545C217.116 76.4545 214.252 75.5455 210.858 74.7273L200.722 72.1818C192.873 70.2727 186.676 67.2879 182.131 63.2273C177.585 59.1667 175.328 53.697 175.358 46.8182C175.328 41.1818 176.828 36.2576 179.858 32.0455C182.919 27.8333 187.116 24.5455 192.449 22.1818C197.782 19.8182 203.843 18.6364 210.631 18.6364C217.54 18.6364 223.57 19.8182 228.722 22.1818C233.903 24.5455 237.934 27.8333 240.812 32.0455C243.691 36.2576 245.176 41.1364 245.267 46.6818H226.403ZM304.188 83.2727V43.1818H323.551V113H304.96V100.318H304.233C302.657 104.409 300.036 107.697 296.369 110.182C292.733 112.667 288.294 113.909 283.051 113.909C278.384 113.909 274.278 112.848 270.733 110.727C267.188 108.606 264.415 105.591 262.415 101.682C260.445 97.7727 259.445 93.0909 259.415 87.6364V43.1818H278.778V84.1818C278.809 88.303 279.915 91.5606 282.097 93.9545C284.278 96.3485 287.203 97.5455 290.869 97.5455C293.203 97.5455 295.384 97.0152 297.415 95.9545C299.445 94.8636 301.081 93.2576 302.324 91.1364C303.597 89.0152 304.218 86.3939 304.188 83.2727ZM339.04 113V43.1818H357.494V55.5H358.312C359.767 51.4091 362.191 48.1818 365.585 45.8182C368.979 43.4545 373.04 42.2727 377.767 42.2727C382.555 42.2727 386.631 43.4697 389.994 45.8636C393.358 48.2273 395.6 51.4394 396.722 55.5H397.449C398.873 51.5 401.449 48.303 405.176 45.9091C408.934 43.4848 413.373 42.2727 418.494 42.2727C425.009 42.2727 430.297 44.3485 434.358 48.5C438.449 52.6212 440.494 58.4697 440.494 66.0455V113H421.176V69.8636C421.176 65.9848 420.146 63.0758 418.085 61.1364C416.025 59.197 413.449 58.2273 410.358 58.2273C406.843 58.2273 404.1 59.3485 402.131 61.5909C400.161 63.803 399.176 66.7273 399.176 70.3636V113H380.403V69.4545C380.403 66.0303 379.419 63.303 377.449 61.2727C375.509 59.2424 372.949 58.2273 369.767 58.2273C367.616 58.2273 365.676 58.7727 363.949 59.8636C362.252 60.9242 360.903 62.4242 359.903 64.3636C358.903 66.2727 358.403 68.5152 358.403 71.0909V113H339.04ZM455.79 113V43.1818H474.244V55.5H475.062C476.517 51.4091 478.941 48.1818 482.335 45.8182C485.729 43.4545 489.79 42.2727 494.517 42.2727C499.305 42.2727 503.381 43.4697 506.744 45.8636C510.108 48.2273 512.35 51.4394 513.472 55.5H514.199C515.623 51.5 518.199 48.303 521.926 45.9091C525.684 43.4848 530.123 42.2727 535.244 42.2727C541.759 42.2727 547.047 44.3485 551.108 48.5C555.199 52.6212 557.244 58.4697 557.244 66.0455V113H537.926V69.8636C537.926 65.9848 536.896 63.0758 534.835 61.1364C532.775 59.197 530.199 58.2273 527.108 58.2273C523.593 58.2273 520.85 59.3485 518.881 61.5909C516.911 63.803 515.926 66.7273 515.926 70.3636V113H497.153V69.4545C497.153 66.0303 496.169 63.303 494.199 61.2727C492.259 59.2424 489.699 58.2273 486.517 58.2273C484.366 58.2273 482.426 58.7727 480.699 59.8636C479.002 60.9242 477.653 62.4242 476.653 64.3636C475.653 66.2727 475.153 68.5152 475.153 71.0909V113H455.79ZM592.449 114.318C587.994 114.318 584.025 113.545 580.54 112C577.055 110.424 574.297 108.106 572.267 105.045C570.267 101.955 569.267 98.1061 569.267 93.5C569.267 89.6212 569.979 86.3636 571.403 83.7273C572.828 81.0909 574.767 78.9697 577.222 77.3636C579.676 75.7576 582.464 74.5455 585.585 73.7273C588.737 72.9091 592.04 72.3333 595.494 72C599.555 71.5758 602.828 71.1818 605.312 70.8182C607.797 70.4242 609.6 69.8485 610.722 69.0909C611.843 68.3333 612.403 67.2121 612.403 65.7273V65.4545C612.403 62.5758 611.494 60.3485 609.676 58.7727C607.888 57.197 605.343 56.4091 602.04 56.4091C598.555 56.4091 595.782 57.1818 593.722 58.7273C591.661 60.2424 590.297 62.1515 589.631 64.4545L571.722 63C572.631 58.7576 574.419 55.0909 577.085 52C579.752 48.8788 583.191 46.4848 587.403 44.8182C591.646 43.1212 596.555 42.2727 602.131 42.2727C606.009 42.2727 609.722 42.7273 613.267 43.6364C616.843 44.5455 620.009 45.9545 622.767 47.8636C625.555 49.7727 627.752 52.2273 629.358 55.2273C630.964 58.197 631.767 61.7576 631.767 65.9091V113H613.403V103.318H612.858C611.737 105.5 610.237 107.424 608.358 109.091C606.479 110.727 604.222 112.015 601.585 112.955C598.949 113.864 595.903 114.318 592.449 114.318ZM597.994 100.955C600.843 100.955 603.358 100.394 605.54 99.2727C607.722 98.1212 609.434 96.5758 610.676 94.6364C611.919 92.697 612.54 90.5 612.54 88.0455V80.6364C611.934 81.0303 611.1 81.3939 610.04 81.7273C609.009 82.0303 607.843 82.3182 606.54 82.5909C605.237 82.8333 603.934 83.0606 602.631 83.2727C601.328 83.4545 600.146 83.6212 599.085 83.7727C596.813 84.1061 594.828 84.6364 593.131 85.3636C591.434 86.0909 590.116 87.0758 589.176 88.3182C588.237 89.5303 587.767 91.0455 587.767 92.8636C587.767 95.5 588.722 97.5152 590.631 98.9091C592.57 100.273 595.025 100.955 597.994 100.955ZM646.79 113V43.1818H665.562V55.3636H666.29C667.563 51.0303 669.699 47.7576 672.699 45.5455C675.699 43.303 679.153 42.1818 683.062 42.1818C684.032 42.1818 685.078 42.2424 686.199 42.3636C687.32 42.4848 688.305 42.6515 689.153 42.8636V60.0455C688.244 59.7727 686.987 59.5303 685.381 59.3182C683.775 59.1061 682.305 59 680.972 59C678.123 59 675.578 59.6212 673.335 60.8636C671.123 62.0758 669.366 63.7727 668.062 65.9545C666.79 68.1364 666.153 70.6515 666.153 73.5V113H646.79ZM713.244 139.182C710.79 139.182 708.487 138.985 706.335 138.591C704.214 138.227 702.456 137.758 701.062 137.182L705.426 122.727C707.699 123.424 709.744 123.803 711.562 123.864C713.411 123.924 715.002 123.5 716.335 122.591C717.699 121.682 718.805 120.136 719.653 117.955L720.79 115L695.744 43.1818H716.108L730.562 94.4545H731.29L745.881 43.1818H766.381L739.244 120.545C737.941 124.303 736.169 127.576 733.926 130.364C731.714 133.182 728.911 135.348 725.517 136.864C722.123 138.409 718.032 139.182 713.244 139.182ZM776.653 19.9091H800.926L826.562 82.4545H827.653L853.29 19.9091H877.562V113H858.472V52.4091H857.699L833.608 112.545H820.608L796.517 52.1818H795.744V113H776.653V19.9091ZM925.233 114.364C918.051 114.364 911.869 112.909 906.688 110C901.536 107.061 897.566 102.909 894.778 97.5455C891.991 92.1515 890.597 85.7727 890.597 78.4091C890.597 71.2273 891.991 64.9242 894.778 59.5C897.566 54.0758 901.491 49.8485 906.551 46.8182C911.642 43.7879 917.612 42.2727 924.46 42.2727C929.066 42.2727 933.354 43.0152 937.324 44.5C941.324 45.9545 944.809 48.1515 947.778 51.0909C950.778 54.0303 953.112 57.7273 954.778 62.1818C956.445 66.6061 957.278 71.7879 957.278 77.7273V83.0455H898.324V71.0455H939.051C939.051 68.2576 938.445 65.7879 937.233 63.6364C936.021 61.4848 934.339 59.803 932.188 58.5909C930.066 57.3485 927.597 56.7273 924.778 56.7273C921.839 56.7273 919.233 57.4091 916.96 58.7727C914.718 60.1061 912.96 61.9091 911.688 64.1818C910.415 66.4242 909.763 68.9242 909.733 71.6818V83.0909C909.733 86.5455 910.369 89.5303 911.642 92.0455C912.945 94.5606 914.778 96.5 917.142 97.8636C919.506 99.2273 922.309 99.9091 925.551 99.9091C927.703 99.9091 929.672 99.6061 931.46 99C933.248 98.3939 934.778 97.4848 936.051 96.2727C937.324 95.0606 938.294 93.5758 938.96 91.8182L956.869 93C955.96 97.303 954.097 101.061 951.278 104.273C948.491 107.455 944.884 109.939 940.46 111.727C936.066 113.485 930.991 114.364 925.233 114.364Z" fill="url(#paint0_linear_4_13)"/>
<defs>
<linearGradient id="paint0_linear_4_13" x1="160" y1="116" x2="970" y2="16.9999" gradientUnits="userSpaceOnUse">
<stop stop-color="#60D884"/>
<stop offset="0.5" stop-color="#52D1B4"/>
<stop offset="1" stop-color="#59C7D5"/>
</linearGradient>
</defs>
</svg>
